<?xml version="1.0" encoding="utf-8"?>
<!-- Generator: Adobe Illustrator 22.0.1, SVG Export Plug-In . SVG Version: 6.00 Build 0)  -->
<svg version="1.1" id="Layer_1" xmlns="http://www.w3.org/2000/svg" xmlns:xlink="http://www.w3.org/1999/xlink" x="0px" y="0px"
	 viewBox="0 0 640 400" style="enable-background:new 0 0 640 400;" xml:space="preserve">
<style type="text/css">
	.st0{fill:#EF1F28;}
	.st1{fill:#FFFFFF;}
	.st2{fill:#59595B;}
	.st3{fill:#898989;}
	.st4{fill:#D7D7D9;}
	.st5{fill:#9FA2A5;}
	.st6{fill:#282525;}
	.st7{fill:#424243;}
	.st8{fill:#B7B7B7;}
	.st9{fill:#6C6E70;}
	.st10{fill:none;}
</style>
<g>
	<g>
		<path class="st0" d="M353.75781,225.6875c3.87399,0.72701,7.86298,1.42101,11.95099,2.07301
			c-4.16-1.02101-8.052-2.08-11.62701-3.16L353.75781,225.6875z"/>
	</g>
	<g>
		<path class="st0" d="M333.625,216.0815c-2.867-1.93399-4.35703-3.81-4.12903-5.536c0.26901-2.026,2.84003-3.644,7.21902-4.839
			l3.84598-12.90999c-28.23499-0.88301-47.91599,2.11899-48.75598,8.461c-0.79102,5.985,15.41498,13.45599,40.35898,19.729
			L333.625,216.0815z"/>
	</g>
	<g>
		<path class="st0" d="M382.7139,196.37109c-6.70602-0.88699-13.24802-1.60599-19.56302-2.17299l-2.70801,9.08
			c13.41602-0.16901,30.17401,0.88499,48.24503,3.276c22.65198,2.99799,42.72598,7.48799,56.48898,12.215
			C454.17188,210.63811,421.73489,201.5341,382.7139,196.37109"/>
	</g>
	<g>
		<path class="st0" d="M340.56049,192.79691l-3.84601,12.91c5.41599-1.478,13.61798-2.30099,23.728-2.429l2.70801-9.08
			C355.19547,193.48392,347.60947,193.01791,340.56049,192.79691"/>
	</g>
	<g>
		<path class="st0" d="M184.76559,229.0947c-3.17001,10.34201-5.92101,19.59801-8.255,27.767
			c-1.00101,3.50201-2.00101,6.96399-3.002,10.38101c-1,3.42001-1.91901,6.465-2.75101,9.12997
			c-0.83699,2.67004-1.50099,4.83902-2.002,6.50403c-0.5,1.66901-0.75,2.58801-0.75,2.75201
			c-3.67,10.17398-7.62999,20.01196-11.883,29.51797c-4.252,9.50601-9.091,17.96799-14.508,25.38998
			c-5.42101,7.41901-11.593,13.383-18.511,17.88602c-6.922,4.50299-14.802,6.754-23.64,6.754c-4.338,0-8.505-0.586-12.507-1.75101
			c-4.003-1.16898-7.37901-3.04501-10.131-5.62799c-2.752-2.58801-4.628-5.922-5.629-10.00699c-1-4.08801-0.668-9.13,1.001-15.133
			c1.001-4.00201,2.959-7.12903,5.879-9.38101c2.915-2.25101,6.08501-3.75201,9.505-4.50302
			c3.41599-0.75,6.87899-0.789,10.38099-0.125c3.50301,0.66901,6.379,1.96301,8.63101,3.87802
			c2.25099,1.91898,3.541,4.42099,3.877,7.504c0.332,3.08398-0.836,6.629-3.502,10.63098
			c-2.16901-1.83698-4.214-2.75198-6.12901-2.75198c-1.91899,0-3.627,0.54001-5.12799,1.62601
			c-1.50101,1.08301-2.627,2.50198-3.377,4.25299s-1.00101,3.45898-0.75,5.12799c0.25,1.66501,1.125,3.12701,2.62599,4.37799
			c1.50101,1.25101,3.83501,1.87601,7.004,1.87601c4.00301,0,7.66901-1.96201,11.007-5.879c3.334-3.91998,6.461-9.13,9.381-15.63397
			c2.91501-6.50302,5.75301-13.96503,8.505-22.388c2.752-8.41901,5.62801-17.21802,8.63-26.39203
			c-5.339,7.005-11.675,12.92603-19.01201,17.76102c-7.34,4.83902-16.009,7.255-26.015,7.255
			c-11.00699,0-19.67999-2.12601-26.01599-6.379c-6.34-4.25299-10.674-9.88101-13.008-16.88501
			c-2.33301-7.005-2.834-14.92401-1.50101-23.76398c1.33301-8.83801,4.167-17.92502,8.505-27.26701
			c4.335-9.33801,9.921-18.425,16.76099-27.26701c6.83601-8.83699,14.59-16.75999,23.264-23.76399
			c8.66901-7.00398,18.092-12.63298,28.267-16.88499c10.17-4.25299,20.76199-6.379,31.769-6.379
			c7.83701,0,14.259,1.62601,19.26199,4.87799c5.00301,3.25201,8.58701,7.297,10.75601,12.13202
			c2.16499,4.83897,3.002,10.00598,2.502,15.50998c-0.50101,5.50301-2.295,10.549-5.379,15.134
			c-3.08701,4.589-7.50401,8.255-13.257,11.006c-5.754,2.752-12.71901,3.714-20.888,2.877
			c-5.00301-0.332-8.923-1.50099-11.757-3.502c-2.838-2.00099-4.92099-4.084-6.254-6.254c-1.66901-2.50099-2.67-5.25301-3.002-8.255
			c4.66701,1.50101,9.045,1.79401,13.133,0.87601c4.08501-0.91501,7.66901-2.502,10.756-4.75301
			c3.084-2.252,5.418-4.87799,7.005-7.87999c1.58301-3.00101,2.20801-5.87801,1.87601-8.63
			c-0.336-2.752-1.83701-5.08501-4.50301-7.00398c-2.67-1.91602-6.672-2.87701-12.007-2.87701
			c-6.84,0-13.34399,1.79401-19.51199,5.37799c-6.172,3.588-11.925,8.341-17.25999,14.259
			c-5.339,5.92101-10.09201,12.675-14.259,20.26201c-4.17101,7.59099-7.63,15.302-10.381,23.13899
			c-2.752,7.841-4.671,15.55301-5.754,23.13998c-1.08601,7.58902-1.25101,14.34302-0.5,20.26102
			c0.75,5.922,2.54099,10.67502,5.378,14.259c2.83399,3.58801,6.91799,5.37799,12.25799,5.37799c4.334,0,8.46201-1,12.382-3.00201
			c3.91701-2.00098,7.63-4.70996,11.132-8.12997c3.502-3.41599,6.711-7.254,9.631-11.50699c2.916-4.25201,5.54201-8.63,7.88-13.133
			c5.50299-10.33702,10.42-22.26302,14.758-35.77103H184.76559z"/>
	</g>
	<g>
		<path class="st0" d="M239.04541,297.63568c-1,3.17004-1.66901,5.71503-2.00101,7.63c-0.336,1.91901-0.375,3.42001-0.125,4.50302
			c0.25,1.08701,0.66498,1.83701,1.25101,2.25101c0.58197,0.41898,1.20798,0.71198,1.87598,0.87598
			c1.50101,0.5,3.70901-0.125,6.629-1.87598c2.91501-1.75101,5.37802-4.79199,7.379-9.13101h4.00302
			c-2.17001,5.17099-4.62802,9.54898-7.38,13.133c-2.75201,3.58801-5.54599,6.504-8.38,8.75601
			c-2.83701,2.25098-5.62799,3.87698-8.38,4.87799c-2.75101,1-5.29599,1.50101-7.629,1.50101
			c-1.66901,0-3.29498-0.25101-4.87799-0.75101c-1.58701-0.5-3.00201-1.33301-4.25299-2.50101
			c-1.25101-1.16501-2.21201-2.75198-2.877-4.75299c-0.66801-2.00201-1-4.58499-1-7.755
			c-2.83801,5.17099-5.75401,9.091-8.75601,11.75699c-3.00099,2.66901-6.42099,4.00302-10.256,4.00302
			c-2.16899,0-4.295-0.45801-6.379-1.37601c-2.08701-0.91602-3.713-2.54102-4.87801-4.87799
			c-1.164-2.33401-1.75099-5.62903-1.75099-9.88101c0-4.25299,1.00099-9.71298,3.002-16.38602l18.76199-62.03697h22.51299
			c-2.83798,9.342-5.42099,18.01099-7.75497,26.01598c-2.16901,7.00302-4.252,13.92603-6.25401,20.76202
			c-2.00099,6.84-3.502,11.92499-4.502,15.25897c-2.002,6.34003-2.795,10.46802-2.377,12.38303
			c0.41501,1.91898,1.04001,2.87698,1.87601,2.87698c1.00099,0,2.459-1.41498,4.37799-4.25299
			c1.91501-2.83398,3.541-5.91699,4.87801-9.25598l0.5-1.75104l19.26199-62.03697h22.51401
			c-2.83801,9.342-5.504,18.01099-8.005,26.01598c-2.17001,7.00302-4.29599,13.92603-6.379,20.76202
			C241.5864,289.21671,240.04639,294.3017,239.04541,297.63568"/>
	</g>
	<g>
		<path class="st0" d="M296.07761,235.5986l-3.50201,11.257l21.513-14.259c-1.00101,6.00401-1.04401,10.632-0.125,13.884
			c0.914,3.252,2.37601,5.589,4.37799,7.004c2.00101,1.41901,4.33401,2.00101,7.004,1.75101
			c2.66602-0.25,5.25302-0.957,7.755-2.12601c-5.34,6.34001-10.50699,11.05-15.50998,14.13399
			c-5.00302,3.086-9.46701,4.75201-13.38303,5.00201c-3.92099,0.25-7.172-0.91498-9.75598-3.50201
			c-2.58701-2.58298-4.21301-6.54297-4.87802-11.88199l-22.013,74.04501H244.7966l28.517-95.30801H296.07761z"/>
	</g>
	<g>
		<path class="st0" d="M519.95178,237.84961c-2.67004,8.842-5.17102,17.179-7.505,25.01599
			c-2,6.672-4.00104,13.29999-6.00201,19.88599c-2.00201,6.59003-3.50299,11.55002-4.50299,14.88403
			c-2.00104,6.34-2.75201,10.38199-2.25201,12.133c0.50098,1.75098,1.41498,2.79498,2.75201,3.12698
			c1.83301,0.5,4.20996-0.125,7.12897-1.87601c2.91602-1.75098,5.37799-4.79199,7.37903-9.13098h3.50201
			c-2.00104,5.17102-4.33801,9.54901-7.00403,13.133c-2.66901,3.58801-5.46399,6.504-8.37903,8.75598
			c-2.91998,2.25101-5.75397,3.87701-8.50598,4.87802c-2.75098,1-5.21399,1.50101-7.37897,1.50101
			c-3.00201,0-5.84003-0.87601-8.505-2.62701c-2.67004-1.75101-4.17102-5.29199-4.50299-10.63199
			c-3.50201,3.67099-7.591,6.798-12.25803,9.38098c-4.67099,2.58801-9.25598,3.87802-13.758,3.87802
			c-3.16998,0-5.83899-1.04001-8.005-3.12701c-2.16898-2.08398-3.50098-5.254-4.00198-9.50598
			c-0.5-4.25302-0.04001-9.63101,1.37601-16.13501c1.41498-6.504,4.04199-14.091,7.879-22.76401
			c3.83398-8.83701,8.755-16.38498,14.759-22.638c6.004-6.254,12.38297-11.13199,19.13699-14.634
			c6.75397-3.50299,13.508-5.586,20.263-6.254C508.32074,234.43361,514.44775,235.3486,519.95178,237.84961 M476.92578,305.8916
			c0.50098-2.50201,1.25098-5.254,2.25195-8.25598l14.75903-49.27901c-1.00104-0.332-2.00104-0.5-3.00201-0.5
			c-2.66998,0-5.42102,1.54399-8.255,4.627c-2.83801,3.088-5.50397,7.00497-8.005,11.758
			c-2.50201,4.75302-4.79599,9.841-6.87897,15.258c-2.08801,5.42203-3.58902,10.50699-4.50302,15.26001
			c-0.91898,4.75299-1.16898,8.673-0.75098,11.75699c0.41498,3.08801,1.70798,4.62799,3.87799,4.62799
			c1.66501,0,3.50198-0.62598,5.50299-1.87598C473.92377,308.01761,475.58875,306.8916,476.92578,305.8916"/>
	</g>
	<g>
		<path class="st0" d="M559.47461,272.62109c7.16797,4.67102,11.88196,10.29901,14.13397,16.88501
			c2.25098,6.59,2.45801,12.883,0.625,18.88599c-1.83698,6.004-5.672,11.13202-11.50702,15.38501
			c-5.83997,4.25201-13.34399,6.379-22.51398,6.379c-4.00299,0-7.716-0.83301-11.13202-2.50198
			c-3.41901-1.66501-6.25299-3.87701-8.50397-6.62903c-2.25201-2.75198-3.79602-5.793-4.62799-9.13098
			c-0.83301-3.33398-0.66504-6.668,0.5-10.005c1.16498-3.83398,2.95898-6.754,5.37799-8.755
			c2.41595-2.00201,5.04297-3.25201,7.87897-3.75299c2.83398-0.5,5.62903-0.332,8.38104,0.50098
			c2.75098,0.836,5.12799,2.16901,7.12897,4.00201c2.00098,1.83701,3.41602,4.08899,4.25299,6.75403
			c0.83203,2.66998,0.664,5.58899-0.50098,8.75497c-3.16998-3.00101-6.04602-4.04199-8.63-3.12601
			c-2.58801,0.91699-4.42102,2.5-5.50299,4.75201c-1.08704,2.25098-1.25104,4.62799-0.50104,7.129
			c0.75104,2.50198,2.87701,4.00299,6.37903,4.50299c4.00299,0.5,7.29401-0.457,9.88098-2.87698
			c2.58398-2.41501,4.25299-5.41702,5.00299-9.005c0.75104-3.58502,0.45801-7.336-0.875-11.25598
			c-1.33698-3.91702-3.83899-7.21204-7.505-9.88202c-6.50397-4.50201-11.04999-9.88098-13.633-16.13501
			c-2.58795-6.25299-3.16998-12.21399-1.75098-17.88599c1.41498-5.66701,4.79199-10.50601,10.13098-14.509
			c5.33502-4.00101,12.672-6.002,22.01404-6.002c8.16901,0,14.42297,2.086,18.76099,6.25299
			c4.33502,4.17,5.66797,9.591,4.00299,16.26003c-1.50098,5.00299-4.17102,8.46597-8.005,10.38098
			c-3.83899,1.91901-7.591,2.54498-11.25702,1.87598c-3.67096-0.66397-6.672-2.45798-9.00598-5.37799
			c-2.33698-2.91599-2.58698-6.711-0.75-11.38199c3.50201,2.50101,6.461,3.33798,8.88,2.50101
			c2.41602-0.832,4.04199-2.20801,4.87799-4.12701c0.83301-1.91499,0.70801-3.87799-0.375-5.879
			c-1.08698-2.00099-3.46301-3.002-7.12897-3.002c-3.33801,0-6.172,1.04401-8.50604,3.127
			c-2.33698,2.088-3.87695,4.67101-4.62799,7.755c-0.75,3.08798-0.5,6.379,0.75104,9.88101
			C552.84558,266.8671,555.47156,269.95511,559.47461,272.62109"/>
	</g>
	<g>
		<path class="st1" d="M367.9631,178.06631l-22.01202,73.79399c3.33301-4.83501,6.87802-8.757,10.63-11.758
			c3.75302-3.002,7.79401-4.50401,12.134-4.50401c5.16602,0,8.62802,2.339,10.38101,7.00601
			c1.75,4.67099,1.87601,10.093,0.37399,16.259c-1.5,6.17099-4.50101,12.21899-9.005,18.13699
			c-4.50299,5.92102-10.34299,10.13098-17.50998,12.633c0,2.668,0.20599,5.46301,0.62399,8.38
			c0.414,2.91901,1.12601,5.62701,2.12698,8.129c1,2.50101,2.25101,4.54599,3.75302,6.129c1.5,1.58701,3.25,2.37701,5.254,2.37701
			c2.00098,0,4.37598-1.04102,7.129-3.12701c2.75101-2.08398,5.20798-5.29401,7.379-9.63098h4.00299
			c-2.00198,5.16998-4.379,9.54797-7.13,13.13199c-2.75299,3.58798-5.591,6.504-8.505,8.75598
			c-2.92099,2.25201-5.75497,3.87701-8.50598,4.87701c-2.75101,1.00101-5.215,1.50198-7.38,1.50198
			c-3.50201,0-6.379-1.25098-8.63-3.75299c-2.25198-2.50101-4.08798-5.58499-5.50198-9.25598
			c-1.41901-3.66602-2.46503-7.54303-3.12701-11.63202c-0.66901-4.08301-1.17099-7.79401-1.50198-11.13098l-10.75803,36.52197
			h-22.763l45.52701-152.84097H367.9631z M354.70511,253.1113c-1.5,0-3.00201,0.875-4.50302,2.625
			c-1.5,1.75101-3.00198,3.96402-4.50198,6.63c-1.50201,2.668-2.96301,5.58902-4.37802,8.754
			c-1.41898,3.172-2.71298,6.17401-3.87698,9.00702l-1.75201,5.25397c4.50302-0.66599,8.42001-2.75299,11.758-6.25397
			c3.33502-3.50302,5.918-7.17001,7.755-11.008c1.83401-3.83401,2.75101-7.29303,2.75101-10.38202
			C357.95709,254.65331,356.87009,253.1113,354.70511,253.1113"/>
	</g>
	<g>
		<path class="st1" d="M437.75589,178.06589l-22.01401,74.04401c3.33499-4.83501,6.961-8.79401,10.883-11.882
			c3.91501-3.084,8.04401-4.629,12.38199-4.629c5.504,0,8.83701,1.92101,10.005,5.755c1.16699,3.838,1.20901,8.59,0.12601,14.25699
			c-1.086,5.67201-2.87601,11.88301-5.379,18.636c-2.5,6.75598-4.79401,12.96899-6.87799,18.63702
			c-2.08902,5.67096-3.46301,10.42596-4.12802,14.25998c-0.66901,3.83902,0.25101,5.75198,2.75101,5.75198
			c1.83301,0,4.08499-0.74899,6.755-2.25098c2.66599-1.5,5.086-4.41699,7.255-8.75403h4.00198
			c-2.00101,5.17001-4.37799,9.54803-7.129,13.13202c-2.75299,3.58701-5.547,6.50299-8.38,8.755
			c-2.83899,2.25201-5.63,3.87701-8.38098,4.87701c-2.75101,1.00098-5.215,1.50198-7.379,1.50198
			c-4.33801,0-7.46503-1.08301-9.38101-3.25198c-1.918-2.16702-3.00201-5.08502-3.25299-8.75604
			c-0.25-3.66595,0.12598-7.79297,1.12598-12.38196c1.00101-4.58401,2.29001-9.29303,3.87701-14.13202
			c1.58499-4.83499,3.25201-9.547,5.005-14.13501c1.75-4.58499,3.20801-8.71198,4.37601-12.383
			c1.16599-3.66599,1.87799-6.58499,2.12598-8.754c0.25101-2.16699-0.293-3.252-1.625-3.252c-1.50198,0-3.04599,1.043-4.629,3.127
			c-1.586,2.08603-3.211,4.71402-4.87698,7.879c-1.67001,3.16901-3.21402,6.50403-4.629,10.005
			c-1.41901,3.50299-2.71301,6.755-3.87802,9.75702l-14.00598,47.02798h-22.51501l45.27902-152.841H437.75589z"/>
	</g>
	<g>
		<path class="st1" d="M247.78809,133.0679c0.86697,2.48102,2.54898,5.90903,5.63599,8.15002
			c7.17499,5.211,20.745,5.61398,31.64899,5.93399c1.10303,0.03299,8.43503,0.84201,13.42102,1.366l-5.58002,42.168
			c80.254-14.36301,155.20901,14.48199,175.84302,23.43999l6.05096-45.73299c10.89404,1.35599,34.25305,1.29999,42.33905-8.59698
			c4.349-5.319,6.84796-12.685,7.04596-20.73401c0.37402-15.24802-9.177-25.12601-25.54297-26.18701
			c0,0,1.72198-14.03198,1.93799-15.79498c0.54102-4.41901,0.14001-9.034-1.16803-13.345
			c-2.22101-7.30099-7.29297-13.845-13.91595-17.95102c-7.63104-4.73499-16.784-6.00101-25.77301-3.56998
			c-9.151,2.48199-19.375,7.55499-23.70001,15.72998c0,0-5.806-14.23898-8.591-19.74298
			c-4.49197-8.884-14.61398-16.07303-26.42099-18.76703c-21.29401-4.88397-45.742,6.974-57.01001,27.59201
			c0,0-16.25198-7.57599-18.22699-8.20099c-5.664-1.60699-11.68701-1.66-17.42001-0.16901
			c-8.34399,2.16299-15.77698,7.93301-20.396,15.82901c-4.62,7.89798-7.276,19.078-5.07199,27.42099
			c0,0-14.32401,0.12799-16.939,0.44699c-4.284,0.52002-8.73801,2.48602-11.91202,5.255
			C247.43307,113.3829,244.74606,124.32993,247.78809,133.0679"/>
	</g>
	<g>
		<path class="st0" d="M468.53711,216.0249c-0.59668,0-1.2207-0.26465-1.90625-0.55518
			c-6.19141-2.62646-12.64746-5.10791-19.19141-7.37549c-53.05273-18.37891-106.3877-23.67139-154.23877-15.31055
			c-0.06543,0.0127-0.13184,0.021-0.19922,0.0249c-0.19385,0.01318-0.38477-0.01514-0.56201-0.07422
			c0,0-0.00049-0.00049-0.00098-0.00049l0,0c-0.19385-0.06445-0.36914-0.16748-0.51807-0.29883
			c-0.16895-0.14941-0.30566-0.33789-0.39404-0.5542c-0.05762-0.13965-0.09424-0.28906-0.10742-0.4458l0,0c0,0,0,0,0-0.00049
			c-0.00391-0.05078-0.00586-0.10107-0.00488-0.15137v-1.22217c0-0.07373,0.00537-0.146,0.01563-0.2168l5.21094-39.37939
			c-3.89014-0.37012-7.83594-0.61377-11.66748-0.85059c-4.64453-0.28662-9.44727-0.58301-14.16455-1.10449
			c-9.59424-1.06104-20.18359-3.12744-24.41846-14.27344c-0.00342-0.00781-0.00635-0.01563-0.00879-0.02344
			c-0.02148-0.05664-0.03955-0.11328-0.05518-0.16943c-2.51807-8.18799-1.80029-20.17285,5.72754-27.24951
			c7.59863-7.14355,17.38574-7.0835,26.86035-7.01807c0.6543,0.00391,1.30713,0.0083,1.95752,0.01025
			c-0.30518-2.24609-0.39941-4.54199-0.29541-6.84814c0.06592-2.26709,0.35596-4.52051,0.85889-6.73145
			c1.64258-7.82617,5.47217-15.25781,10.97754-20.56006c8.05566-7.75928,18.40771-11.38965,28.40479-9.9585
			c5.39063,0.77197,10.16113,3.00391,14.77344,5.1626c0.69434,0.32471,1.3916,0.65088,2.09375,0.97363
			c1.82715,0.83936,3.65332,1.68115,5.47852,2.5293c0.07617,0.03564,0.14844,0.0708,0.21777,0.10449l0.06445-0.10791
			c3.2959-5.47656,7.10156-10.10254,11.31348-13.74902c9.74707-8.44287,21.32227-13.49805,32.59082-14.23389
			c13.23047-0.86084,26.16113,3.47021,34.56836,11.59326c6.3291,6.1123,9.60645,14.25635,12.77734,22.13184
			c0.48438,1.20264,0.9668,2.40186,1.45801,3.58838c0.02441,0.0542,0.0957,0.19238,0.18555,0.37012
			c1.22852-1.72949,2.55859-3.1875,4.02637-4.41602c4.59668-3.84717,10.03125-6.75928,16.15234-8.65527
			c14.80078-4.58643,29.83105-0.49072,38.29883,10.43164c3.83008,4.94141,5.80469,9.97559,6.67871,15.11523
			c0.75879,3.42285,0.96973,6.95313,0.54395,10.42529l-0.06445,0.52539c-0.2168,3.87988-0.73926,7.82275-1.27051,11.83203
			c-0.07129,0.53809-0.14258,1.07764-0.21387,1.61865c11.75195,1.41016,20.22559,7.21338,23.38477,16.09033
			c1.09375,3.07373,1.72363,6.53418,1.86621,10.06836c0.13281,2.52734-0.02734,5.146-0.47754,7.73779
			c-0.01074,0.06201-0.02148,0.12402-0.03223,0.18555c-2.22852,12.86426-8.90625,20.86816-19.84766,23.78955
			c-8.68652,2.31982-18.69922,2.979-28.96191,1.90625c-0.16016-0.0166-0.29102-0.02686-0.39844-0.03271
			c-0.00391,0.06934-0.00781,0.13916-0.01172,0.20459c-0.02148,0.38672-0.04883,0.8418-0.11816,1.37012l-5.375,40.62598
			c-0.04199,0.31201-0.06348,0.57764-0.08301,0.80029c-0.06055,0.70947-0.13574,1.59229-0.96582,2.09229
			C469.16309,215.95068,468.85449,216.0249,468.53711,216.0249z M339.23047,184.60547c28.33203,0,57.6582,4.22803,87.6582,12.66357
			c9.75391,2.74121,18.64551,5.60791,27.18359,8.76416l1.16699,0.4248c6.48047,2.35693,10.20313,3.71143,12.32715,4.60156
			l5.69727-43.05762c0.25781-1.95801,2.51563-1.81885,8.04199-1.28467c0.73047,0.07031,1.31152,0.12939,1.57422,0.13525
			c9.79492,0.21924,20.88477-0.20801,28.76563-5.05908c5.52051-3.39844,9.37891-10.29395,10.68555-17.62207
			c0.45508-2.79492,0.55664-5.69189,0.32031-8.49756c-0.24414-2.21045-0.76172-4.35107-1.57617-6.33203
			c-4.40332-10.69727-14.69141-13.70605-22.54688-14.34668c-0.00684-0.00049-0.0127-0.00098-0.01953-0.00195
			c-0.2998-0.02832-0.57227-0.14404-0.79395-0.3208c-0.08398-0.06689-0.16113-0.14307-0.23047-0.22803
			c-0.00879-0.01123-0.01758-0.02295-0.02637-0.03467c-0.17969-0.23438-0.29102-0.52295-0.30566-0.83545
			c-0.08008-0.52393-0.03906-1.10645,0.00781-1.49854c0.00098-0.00537,0.00195-0.01025,0.00195-0.01514l1.80176-14.68506
			c0.20508-3.78662,0.10352-7.49805-0.60547-11.12842c-2.06445-8.14063-7.54492-15.50488-14.99121-19.35254
			c-11.04688-5.7085-24.6875-4.60938-36.4873,2.93799c-2.51953,1.61133-5.36035,3.60596-7.33789,6.1792
			c-0.08496,0.1123-0.30859,0.52734-0.47266,0.83008c-0.83496,1.54639-1.60156,3.03223-3.03809,2.93408
			c-0.3457-0.01807-1.19727-0.17773-1.64258-1.25977c-1.72559-4.2002-3.07715-7.4165-4.38184-10.42822
			c-4.52344-10.43799-9.55957-18.35156-19.42969-23.04443c-10.66211-5.06885-22.56641-5.92529-33.52539-2.4082
			c-11.48145,3.68506-21.3877,10.69629-27.89355,19.74268c-0.14063,0.19482-0.46484,0.7124-0.87402,1.35986
			c-3.05273,4.83398-3.68945,5.83936-5.16309,5.15381c-1.0752-0.5-2.14941-0.99951-3.22754-1.49707l-0.58691-0.27148
			c-3.35254-1.54883-6.81934-3.15039-10.24805-4.66699c-10.72217-4.74072-22.92871-2.77637-32.65039,5.25
			c-6.61279,5.46143-10.87988,12.72852-12.31152,20.45068c-0.23047,1.32617-0.39258,2.66162-0.4834,3.99561
			c-0.1665,2.92236,0.07178,5.87451,0.7417,8.78906c0.00049,0.00146,0.00098,0.00293,0.00098,0.00439
			c0.0459,0.19678,0.06396,0.3291,0.03906,1.54492l-0.00098,0.03223c0,0.03369-0.00098,0.06689-0.00293,0.10059
			c-0.00049,0.00098-0.00098,0.00098,0,0.00488c-0.01758,0.27344-0.10889,0.52832-0.25537,0.74414
			c-0.00098,0.00098-0.00146,0.00146-0.00244,0.00342c-0.06299,0.09229-0.13574,0.17676-0.2168,0.25195
			c-0.00098,0.00195-0.00195,0.00244-0.00293,0.00342c-0.19727,0.18262-0.44482,0.31396-0.72168,0.36963
			c-0.00146,0.00146-0.00293,0.00098-0.00537,0.00098c-0.05762,0.01172-0.1167,0.01953-0.17627,0.02441
			c-0.00146,0-0.00293-0.00146-0.00439,0.00049c-0.03906,0.00244-0.06494,0.00488-0.11572,0.00391
			c-1.62158,0.01758-3.33447-0.03027-4.98926-0.07373c-4.49658-0.11816-9.14746-0.24072-13.2041,0.73975
			c-6.01074,1.4541-10.92432,5.08447-13.83594,10.22217c-2.89063,5.10059-3.47754,11.14795-1.6543,17.03369
			c3.67285,9.61182,13.44922,11.67432,23.46826,12.47021c3.16895,0.25146,6.3291,0.46045,9.48633,0.66943
			c5.39453,0.35693,10.97266,0.72607,16.49072,1.30908l0,0c0.29102,0.03076,0.55615,0.14355,0.77246,0.31445
			c0.09375,0.07422,0.1792,0.15967,0.25342,0.25537c0.01074,0.01367,0.021,0.02783,0.03125,0.04199
			c0.15869,0.21875,0.25928,0.48096,0.28076,0.76465c0.09717,0.58154,0.03564,1.23193-0.00879,1.56445l-5.14355,38.86914
			C309.31738,185.80664,324.13281,184.60547,339.23047,184.60547z"/>
	</g>
	<g>
		<path class="st0" d="M483.9873,154.53561c1.62994-1.172,5.10394-6.66898,6.40094-8.12399
			c2.30103-2.57999,2.18201-5.14798,3.74005-7.91998c1.29401-2.30099,4.94-3.194,7.51099-1.647
			c2.30902,1.388,2.90802,4.241,2.51599,6.41501c-0.508,2.81497-2.14899,5.66397-4.73999,7.42999
			c-2.69904,1.83899-6.164,2.58301-9.513,3.19501C488.4823,154.14462,485.44128,154.42163,483.9873,154.53561"/>
	</g>
	<g>
		<path class="st0" d="M402.98441,83.8989c-3.90701,11.71503-12.841,25.77002-11.62802,38.99802
			c-0.116-3.08701-3.422-7.29102-3.58499-10.37601c-0.548-10.418-5.909-19.29099-6.879-29.608
			c-0.577-6.146,0.68399-13.87,4.61301-18.608c2.129-2.56598,5.04099-4.25598,8.86697-4.34399
			C406.46439,59.68091,405.8364,75.3519,402.98441,83.8989"/>
	</g>
	<g>
		<path class="st0" d="M470.80859,113.52591c-7.28601,10.86002-24.11603,15.54501-34.77502,18.35501
			c6.40002-3.74899,13.21402-8.633,17.897-15.33798c5.17801-7.41501,3.60699-19.246,8.815-25.47302
			c2.11401-2.52698,5.19202-3.09299,7.39001-1.811C476.12054,92.74893,475.57257,106.42593,470.80859,113.52591"/>
	</g>
	<g>
		<path class="st0" d="M304.80029,144.24799c78.80899-31.07797,147.69098,10.40302,167.06598,23.96201
			C435.96228,152.25299,375.84927,129.992,304.80029,144.24799"/>
	</g>
	<g>
		<path class="st0" d="M307.9971,89.70999c0.564-2.52798,1.86899-4.83798,4.29898-6.22498
			c4.49701-2.565,10.12799,0.04599,10.72101,4.52698c0.45599,3.45203-0.51801,6.83401-0.272,10.27802
			c0.211,2.95001,0.936,5.97598,1.974,8.832c1.612,4.439,4.19199,8.677,7.591,12.41699
			c-1.89001-1.16199-9.64001-3.741-11.24899-5.168c-5.88501-5.22299-11.26401-10.15298-12.91702-17.14301
			C307.61108,94.974,307.43509,92.23401,307.9971,89.70999"/>
	</g>
	<g>
		<path class="st0" d="M266.05081,121.96191c2.14398-2.56097,7.77698-3.27899,11.76498-1.22998
			c4.319,2.21899,2.979,13.21298,12.965,18.59799c-4.384-1.492-10.10699-3.478-10.91098-3.81699
			c-4.569-1.92902-10.27301-3.896-13.21701-7.655C264.7438,125.41992,264.8468,123.39993,266.05081,121.96191"/>
	</g>
	<g>
		<path class="st1" d="M189.4668,341.92682c0.06499,0,0.06499,0.03799,0.06499,0.15198c0,0.15201-0.032,0.49402-0.16299,0.53302
			l-1.271,0.26599c-0.229,0.03799-0.326,0.229-0.326,0.53299c-0.16299,2.43701-0.26199,8.71802-0.29401,10.47
			c-0.032,1.40802-0.12999,9.70801-0.12999,10.203c0,0.30402,0.12999,0.38,0.358,0.45599l1.33699,0.34302
			c0.131,0.03799,0.196,0.30499,0.196,0.457c0,0.07599-0.03299,0.11398-0.09799,0.11398
			c-0.554-0.03799-2.315-0.07599-4.14101-0.07599c-1.696,0-3.16299,0.03799-3.91299,0.07599c-0.065,0-0.065-0.03799-0.065-0.11398
			c0-0.19,0.065-0.457,0.16299-0.49503l1.5-0.34299c0.22801-0.03799,0.293-0.15201,0.293-0.49399
			c0.033-1.52301-0.06499-7.957-0.097-10.54602c-0.03299-2.74097-0.099-8.71899-0.16399-9.82199
			c0-0.41898-0.09801-0.686-0.358-0.76199l-1.24001-0.26599c-0.097-0.039-0.16299-0.267-0.16299-0.57101
			c0-0.07599,0-0.11398,0.06599-0.11398H189.4668z M190.8376,341.92682c-0.09801,0-0.09801,0.03799-0.09801,0.11398
			c0,0.228,0.065,0.49399,0.16301,0.53201l1.304,0.30499c0.35899,0.07599,0.457,0.34302,0.489,0.76199
			c0.06599,1.18002,0.261,8.64102,0.29399,10.31702c0.032,2.13199,0.228,8.87,0.228,9.97501
			c0,0.41797-0.12999,0.53198-0.35899,0.56998l-1.662,0.41901c-0.09799,0-0.16299,0.267-0.16299,0.41901
			c0,0.07599,0,0.11398,0.065,0.11398c0.554-0.03799,1.565-0.07599,2.70599-0.07599c1.272,0,2.446,0.03799,2.935,0.07599
			c0.09801,0,0.09801-0.03799,0.09801-0.11398c0-0.19-0.06601-0.38101-0.16301-0.41901l-2.08699-0.41901
			c-0.229-0.07599-0.35901-0.19-0.326-0.56998c0.032-2.39902,0.326-10.47003,0.45599-13.32501c0-0.30499,0-0.724,0.033-1.25601
			l0.16301-0.03799c0.12999,0.228,0.35799,0.646,0.489,0.875c2.57599,4.03601,7.239,11.345,9.91299,15.11401
			c0.261,0.38098,0.554,0.45697,0.84801,0.45697c0.39099,0,1.17299-0.18997,1.532-0.30499
			c0.131-0.07599,0.196-0.15198,0.196-0.30399c0.032-1.37,0.19499-9.289,0.293-11.42099
			c0.09799-2.81802,0.35899-8.68103,0.457-9.97501c0.065-0.647,0.19499-0.83801,0.522-0.914l1.20599-0.30502
			c0.09799-0.03796,0.16299-0.34097,0.16299-0.49399c0-0.07599,0-0.11398-0.09799-0.11398h-6.293
			c-0.065,0-0.065,0.03799-0.065,0.11398c0,0.15302,0.065,0.45602,0.16299,0.49399l1.793,0.30502
			c0.326,0.07599,0.489,0.267,0.522,0.724c0.261,2.703,0.39101,12.03,0.45601,14.88498c0,0.534,0.03299,1.104,0.03299,1.71301
			l-0.12999,0.11499c-0.19601-0.38098-0.39201-0.79999-0.58701-1.21799c-2.34801-4.07401-7.85901-14.23898-9.58701-16.94199
			c-0.065-0.11401-0.16299-0.19-0.32599-0.19H190.8376z M213.01309,342.99261c0.25999,0.03799,0.326,0.19,0.326,0.57098
			c0.032,1.17999,0.12999,8.29999,0.12999,9.97501c0.033,1.59799,0.131,8.94601,0.065,10.431
			c0,0.418-0.16299,0.53198-0.39099,0.57001l-1.43501,0.34299c-0.09799,0-0.16299,0.267-0.16299,0.457
			c0,0.07599,0,0.11499,0.09801,0.11499c0.84799-0.039,2.185-0.077,3.45699-0.077c0.75,0,2.869,0.077,3.847,0.077
			c6.75,0,11.80399-4.797,11.80399-13.021c0-7.19501-4.14099-10.73499-11.28198-10.73499
			c-2.83701,0-6.58699,0.30399-8.08699,0.53198c-0.09801,0-0.09801,0.07602-0.09801,0.15201c0,0.19101,0.09801,0.457,0.196,0.457
			L213.01309,342.99261z M219.11008,364.76862c-0.68399,0-1.10901-0.26703-1.10901-0.685
			c-0.06497-1.14203,0.26202-18.42603,0.49002-21.01501c0.03198-0.457,0.16299-0.64801,0.75-0.64801
			c4.173,0,6.45599,4.07501,6.45599,10.12701c0,9.51801-3.71701,12.22101-6.55399,12.22101H219.11008z M232.74298,341.92682
			c-0.06601,0-0.06601,0.03799-0.06601,0.11398c0,0.30402,0.06601,0.53201,0.16299,0.57101l1.24002,0.26599
			c0.25998,0.07599,0.358,0.34302,0.358,0.76199c0.06497,1.103,0.13098,7.08102,0.16397,9.82199
			c0.03201,2.58902,0.13,9.02301,0.09702,10.54602c0,0.34198-0.065,0.45599-0.293,0.49399l-1.5,0.34299
			c-0.09799,0.03802-0.16299,0.30502-0.16299,0.49503c0,0.07599,0,0.11398,0.065,0.11398
			c0.75-0.03799,2.21698-0.07599,3.91299-0.07599c1.82599,0,3.58701,0.03799,4.14099,0.07599
			c0.065,0,0.09799-0.03799,0.09799-0.11398c0-0.15201-0.065-0.41901-0.19598-0.457l-1.33701-0.34302
			c-0.228-0.07599-0.358-0.15198-0.358-0.45599c0-0.495,0.09799-8.79498,0.13-10.203c0.03201-1.75198,0.13101-8.03299,0.29401-10.47
			c0-0.30399,0.09698-0.495,0.32599-0.53299l1.271-0.26599c0.13101-0.039,0.16299-0.38101,0.16299-0.53302
			c0-0.11398,0-0.15198-0.06497-0.15198H232.74298z M251.55908,341.8504c-1.30499,0-1.72897,0.19101-2.022,1.104
			c-1.46799,4.64398-4.85898,16.33301-6.45697,20.901c-0.16302,0.45599-0.32602,0.608-0.58701,0.685l-0.815,0.30399
			c-0.09799,0.03799-0.16299,0.38101-0.16299,0.49503c0,0.077,0,0.11499,0.065,0.11499
			c0.65198-0.03799,1.63098-0.07599,2.73898-0.07599c1.30402,0,2.60901,0.03799,3.42401,0.07599
			c0.06598,0,0.09799,0,0.09799-0.07599c0-0.229-0.09799-0.49603-0.19601-0.49603l-1.69498-0.37997
			c-0.228-0.077-0.35901-0.19101-0.327-0.647c0.19598-1.371,0.81598-4.45502,1.01199-5.55902
			c0.03198-0.19,0.13-0.30399,0.228-0.30399c1.69598-0.15298,5.478-0.267,6.94501-0.30499
			c0.35898,1.29498,1.565,4.94901,1.92398,6.20599c0.065,0.30399,0.03302,0.57001-0.228,0.60901l-1.76099,0.34198
			c-0.09802,0.03799-0.19601,0.30502-0.19601,0.53403c0,0.03799,0,0.07599,0.09799,0.07599
			c0.88101-0.03799,2.642-0.07599,4.46802-0.07599c1.63,0,3.19501,0.07599,3.88,0.07599c0.065,0,0.09799-0.03799,0.09799-0.07599
			c0-0.26703-0.06601-0.45801-0.16299-0.49603l-1.207-0.37997c-0.19601-0.077-0.35901-0.267-0.42401-0.49503
			c-1.30399-4.68298-4.66299-17.81699-5.70599-21.92798c-0.03299-0.07599-0.16299-0.15302-0.26099-0.15302
			c-0.71701-0.03799-1.59802-0.07599-2.73901-0.07599H251.55908z M250.02609,344.85739
			c0.19601,0.53302,0.32599,0.99002,0.42401,1.33301c0.88,3.42599,2.57599,8.94601,3.13,10.77301
			c-1.40201,0.039-4.89102-0.11401-6.39102-0.341c-0.09799,0-0.19598-0.11502-0.16299-0.267
			c0.61899-2.62701,1.66299-7.043,2.478-10.203c0.065-0.34302,0.16299-0.724,0.32602-1.29501H250.02609z M262.12518,341.92682
			c-0.09799,0-0.09799,0.03799-0.09799,0.11398c0,0.228,0.065,0.49399,0.16299,0.53201l1.30402,0.30499
			c0.35898,0.07599,0.457,0.34302,0.48898,0.76199c0.06601,1.18002,0.26102,8.64102,0.29401,10.31702
			c0.03198,2.13199,0.228,8.87,0.228,9.97501c0,0.41797-0.13,0.53198-0.35901,0.56998l-1.66199,0.41901
			c-0.09799,0-0.16299,0.267-0.16299,0.41901c0,0.07599,0,0.11398,0.065,0.11398c0.55399-0.03799,1.565-0.07599,2.70599-0.07599
			c1.272,0,2.44598,0.03799,2.935,0.07599c0.09799,0,0.09799-0.03799,0.09799-0.11398c0-0.19-0.06601-0.38101-0.16299-0.41901
			l-2.08701-0.41901c-0.229-0.07599-0.35901-0.19-0.32599-0.56998c0.03198-2.39902,0.32599-10.47003,0.45599-13.32501
			c0-0.30499,0-0.724,0.03299-1.25601l0.16302-0.03799c0.12997,0.228,0.35797,0.646,0.48898,0.875
			c2.57599,4.03601,7.23901,11.345,9.91299,15.11401c0.26102,0.38098,0.55402,0.45697,0.84802,0.45697
			c0.39099,0,1.17297-0.18997,1.53198-0.30499c0.13101-0.07599,0.19601-0.15198,0.19601-0.30399
			c0.03198-1.37,0.19498-9.289,0.293-11.42099c0.09799-2.81802,0.35898-8.68103,0.457-9.97501
			c0.065-0.647,0.19498-0.83801,0.522-0.914l1.20599-0.30502c0.09799-0.03796,0.16299-0.34097,0.16299-0.49399
			c0-0.07599,0-0.11398-0.09799-0.11398h-6.293c-0.065,0-0.065,0.03799-0.065,0.11398c0,0.15302,0.065,0.45602,0.16299,0.49399
			l1.793,0.30502c0.32599,0.07599,0.48898,0.267,0.522,0.724c0.26099,2.703,0.39099,12.03,0.45599,14.88498
			c0,0.534,0.03299,1.104,0.03299,1.71301l-0.12997,0.11499c-0.19601-0.38098-0.39203-0.79999-0.58701-1.21799
			c-2.34802-4.07401-7.85901-14.23898-9.58701-16.94199c-0.065-0.11401-0.16299-0.19-0.32599-0.19H262.12518z M296.85599,341.8504
			c-1.30499,0-1.72897,0.19101-2.022,1.104c-1.46799,4.64398-4.85898,16.33301-6.45697,20.901
			c-0.16302,0.45599-0.32602,0.608-0.58701,0.685l-0.815,0.30399c-0.09799,0.03799-0.16299,0.38101-0.16299,0.49503
			c0,0.077,0,0.11499,0.065,0.11499c0.65198-0.03799,1.63098-0.07599,2.73898-0.07599c1.30402,0,2.60901,0.03799,3.42401,0.07599
			c0.06598,0,0.09799,0,0.09799-0.07599c0-0.229-0.09799-0.49603-0.19601-0.49603l-1.69498-0.37997
			c-0.228-0.077-0.35901-0.19101-0.327-0.647c0.19598-1.371,0.81598-4.45502,1.01199-5.55902
			c0.03198-0.19,0.13-0.30399,0.228-0.30399c1.69598-0.15298,5.478-0.267,6.94501-0.30499
			c0.35898,1.29498,1.565,4.94901,1.92398,6.20599c0.065,0.30399,0.03302,0.57001-0.228,0.60901l-1.76099,0.34198
			c-0.09802,0.03799-0.19601,0.30502-0.19601,0.53403c0,0.03799,0,0.07599,0.09799,0.07599
			c0.88101-0.03799,2.642-0.07599,4.46802-0.07599c1.63,0,3.19501,0.07599,3.88,0.07599c0.065,0,0.09799-0.03799,0.09799-0.07599
			c0-0.26703-0.06601-0.45801-0.16299-0.49603l-1.207-0.37997c-0.19601-0.077-0.35901-0.267-0.42401-0.49503
			c-1.30399-4.68298-4.66299-17.81699-5.70599-21.92798c-0.03299-0.07599-0.16299-0.15302-0.26099-0.15302
			c-0.71701-0.03799-1.59802-0.07599-2.73901-0.07599H296.85599z M295.323,344.85739
			c0.19601,0.53302,0.32599,0.99002,0.42401,1.33301c0.88,3.42599,2.57599,8.94601,3.13,10.77301
			c-1.40201,0.039-4.89102-0.11401-6.39102-0.341c-0.09799,0-0.19598-0.11502-0.16299-0.267
			c0.61899-2.62701,1.66299-7.043,2.478-10.203c0.065-0.34302,0.16299-0.724,0.32602-1.29501H295.323z M307.42197,341.92682
			c-0.09799,0-0.09799,0.03799-0.09799,0.11398c0,0.228,0.065,0.49399,0.16299,0.53201l1.30402,0.30499
			c0.35898,0.07599,0.457,0.34302,0.48898,0.76199c0.06601,1.18002,0.26102,8.64102,0.29401,10.31702
			c0.03198,2.13199,0.228,8.87,0.228,9.97501c0,0.41797-0.13,0.53198-0.35901,0.56998l-1.66199,0.41901
			c-0.09799,0-0.16299,0.267-0.16299,0.41901c0,0.07599,0,0.11398,0.065,0.11398c0.55399-0.03799,1.565-0.07599,2.70599-0.07599
			c1.272,0,2.44598,0.03799,2.935,0.07599c0.09799,0,0.09799-0.03799,0.09799-0.11398c0-0.19-0.06601-0.38101-0.16299-0.41901
			l-2.08701-0.41901c-0.229-0.07599-0.35901-0.19-0.32599-0.56998c0.03198-2.39902,0.32599-10.47003,0.45599-13.32501
			c0-0.30499,0-0.724,0.03299-1.25601l0.16302-0.03799c0.12997,0.228,0.35797,0.646,0.48898,0.875
			c2.57599,4.03601,7.23901,11.345,9.91299,15.11401c0.26102,0.38098,0.55402,0.45697,0.84802,0.45697
			c0.39099,0,1.17398-0.18997,1.53198-0.30499c0.13101-0.07599,0.19699-0.15198,0.19699-0.30399
			c0.03201-1.37,0.19501-9.289,0.29202-11.42099c0.09799-2.81802,0.35898-8.68103,0.457-9.97501
			c0.065-0.647,0.19598-0.83801,0.522-0.914l1.20599-0.30502c0.09799-0.03796,0.16299-0.34097,0.16299-0.49399
			c0-0.07599,0-0.11398-0.09799-0.11398h-6.293c-0.065,0-0.065,0.03799-0.065,0.11398c0,0.15302,0.065,0.45602,0.16299,0.49399
			l1.793,0.30502c0.32599,0.07599,0.48898,0.267,0.522,0.724c0.26099,2.703,0.39099,12.03,0.457,14.88498
			c0,0.534,0.03198,1.104,0.03198,1.71301l-0.12997,0.11499c-0.19601-0.38098-0.39203-0.79999-0.58701-1.21799
			c-2.34802-4.07401-7.85901-14.23898-9.58701-16.94199c-0.065-0.11401-0.16299-0.19-0.32599-0.19H307.42197z M329.5975,342.99261
			c0.26099,0.03799,0.32599,0.19,0.32599,0.57098c0.03299,1.17999,0.13101,8.29999,0.13101,9.97501
			c0.03198,1.59799,0.12997,8.94601,0.065,10.431c0,0.418-0.16302,0.53198-0.39102,0.57001l-1.435,0.34299
			c-0.09799,0-0.16299,0.267-0.16299,0.457c0,0.07599,0,0.11499,0.09799,0.11499c0.84802-0.039,2.185-0.077,3.45599-0.077
			c0.75,0,2.86902,0.077,3.84802,0.077c6.75,0,11.80298-4.797,11.80298-13.021c0-7.19501-4.13998-10.73499-11.28198-10.73499
			c-2.836,0-6.586,0.30399-8.086,0.53198c-0.09799,0-0.09799,0.07602-0.09799,0.15201c0,0.19101,0.09799,0.457,0.19598,0.457
			L329.5975,342.99261z M335.6955,364.76862c-0.685,0-1.10901-0.26703-1.10901-0.685
			c-0.065-1.14203,0.26102-18.42603,0.49002-21.01501c0.03198-0.457,0.16199-0.64801,0.75-0.64801
			c4.17297,0,6.45599,4.07501,6.45599,10.12701c0,9.51801-3.71802,12.22101-6.55499,12.22101H335.6955z M355.42499,341.92682
			c-0.09799,0-0.09799,0.03799-0.09799,0.11398c0,0.228,0.06601,0.49399,0.16299,0.53201l1.30499,0.30499
			c0.358,0.07599,0.45602,0.34302,0.48901,0.76199c0.06601,1.18002,0.26099,8.64102,0.293,10.31702
			c0.03299,2.13199,0.229,8.87,0.229,9.97501c0,0.41797-0.13101,0.53198-0.35901,0.56998l-1.66299,0.41901
			c-0.09702,0-0.16299,0.267-0.16299,0.41901c0,0.07599,0,0.11398,0.06598,0.11398c0.55301-0.03799,1.56403-0.07599,2.70602-0.07599
			c1.271,0,2.44498,0.03799,2.93399,0.07599c0.09799,0,0.09799-0.03799,0.09799-0.11398c0-0.19-0.065-0.38101-0.16299-0.41901
			l-2.08701-0.41901c-0.228-0.07599-0.35901-0.19-0.32599-0.56998c0.03299-2.39902,0.32599-10.47003,0.457-13.32501
			c0-0.30499,0-0.724,0.03198-1.25601l0.16302-0.03799c0.13098,0.228,0.35898,0.646,0.48898,0.875
			c2.57599,4.03601,7.23999,11.345,9.91299,15.11401c0.26102,0.38098,0.55499,0.45697,0.84802,0.45697
			c0.392,0,1.17398-0.18997,1.53198-0.30499c0.13101-0.07599,0.19699-0.15198,0.19699-0.30399
			c0.03201-1.37,0.19501-9.289,0.29202-11.42099c0.09799-2.81802,0.35999-8.68103,0.45798-9.97501
			c0.065-0.647,0.19501-0.83801,0.52103-0.914l1.20599-0.30502c0.099-0.03796,0.16299-0.34097,0.16299-0.49399
			c0-0.07599,0-0.11398-0.09799-0.11398h-6.29202c-0.06598,0-0.06598,0.03799-0.06598,0.11398
			c0,0.15302,0.06598,0.45602,0.16299,0.49399l1.79401,0.30502c0.32498,0.07599,0.48798,0.267,0.522,0.724
			c0.25998,2.703,0.38998,12.03,0.45599,14.88498c0,0.534,0.03299,1.104,0.03299,1.71301l-0.13098,0.11499
			c-0.19501-0.38098-0.39203-0.79999-0.58701-1.21799c-2.34802-4.07401-7.858-14.23898-9.58701-16.94199
			c-0.065-0.11401-0.16299-0.19-0.32599-0.19H355.42499z M391.78549,360.5809c0.03198-0.15201-0.229-0.41901-0.35901-0.457
			c-0.03299,0-0.065,0-0.09799,0.07599c-0.55402,1.06702-1.14099,2.13202-1.793,3.16c-0.13101,0.267-0.35901,0.457-0.685,0.57199
			c-1.59802,0.49402-4.565,0.64603-5.96802,0.64603c-0.228,0-0.358-0.07602-0.358-0.49402c0-1.06598,0.13-8.29999,0.16302-9.55698
			c0-0.30301,0.09799-0.37903,0.392-0.41803c1.69498-0.19,4.92297-0.37997,6.19498-0.53299c0.09802,0,0.26102-0.41898,0.26102-0.647
			c0-0.03799,0-0.07599-0.06601-0.07599c-0.84698-0.03799-4.5-0.11499-6.75-0.229c-0.03198-1.25598,0.16299-7.30899,0.32599-9.63199
			c0-0.26602,0.03403-0.38101,0.35901-0.41901c0.48901,0,3.32602,0.267,4.76102,0.60999c0.39099,0.07602,0.65198,0.19,0.815,0.53302
			c0.48898,1.21799,0.94598,2.35999,1.40198,3.54001c0.03302,0.07599,0.06601,0.07599,0.09802,0.07599
			c0.09799,0,0.392-0.19,0.392-0.30402l-0.229-4.987c0-0.15198-0.065-0.228-0.19501-0.228
			c-0.392,0-2.90302,0.11401-10.17401,0.11401h-1.82599c-0.685,0-1.435-0.03799-2.21799-0.03799
			c-0.06403,0-0.06403,0.03799-0.06403,0.07599c0,0.26599,0.09702,0.53198,0.16302,0.53198l1.33698,0.30502
			c0.19501,0.07599,0.32602,0.228,0.32602,0.685c0.064,1.25601,0.13,8.37601,0.16299,9.86099
			c0,1.71301,0.064,9.44101,0.03201,10.58398c0,0.41803-0.13101,0.53201-0.358,0.60803l-1.5,0.38098
			c-0.099,0.03799-0.16302,0.30499-0.16302,0.457c0,0.03799,0,0.07602,0.09702,0.07602
			c1.07599-0.03802,2.70599-0.07602,3.979-0.07602c3.716,0,6.19501,0.03799,7.82498,0.07602
			c1.63101,0.07599,2.38101,0.11398,2.60901,0.11398c0.16299,0,0.228-0.07599,0.26102-0.19L391.78549,360.5809z
			 M394.68979,343.06821c0.29401,0.03799,0.39099,0.229,0.39099,0.64798c0.03201,1.48401,0.13101,8.10901,0.13101,9.59302
			c0.03198,1.827,0.09799,9.327,0.065,10.62201c0,0.41797-0.13,0.53299-0.35901,0.60898l-1.271,0.34302
			c-0.13101,0.03799-0.19702,0.26599-0.19702,0.457c0,0.07599,0.03403,0.11398,0.099,0.11398
			c0.84802-0.03799,2.151-0.07599,3.97803-0.07599c1.66299,0,3.32599,0.03799,4.62997,0.07599
			c0.06601,0,0.09802-0.03799,0.09802-0.11398c0-0.19101-0.13101-0.457-0.228-0.457l-2.185-0.457
			c-0.229-0.039-0.39203-0.15302-0.39203-0.457c0-1.18002,0.06601-6.43399,0.13101-7.918
			c0.19601,0.07599,0.84799,0.07599,1.30499,0.07599c5.51102,0,8.73801-4.11301,8.73801-7.767c0-3.883-2.28198-6.586-7.98898-6.586
			c-3.61902,0-7.14102,0.34299-8.41202,0.49399c-0.06601,0-0.06601,0.07602-0.06601,0.15302c0,0.19,0.06601,0.457,0.164,0.457
			L394.68979,343.06821z M400.55978,355.3652c-0.52301,0-0.979-0.19-0.94699-0.57101c0-0.83698,0.19699-7.99399,0.327-11.53497
			c0.03299-0.53403,0.423-0.80002,0.978-0.80002c2.25,0,3.71701,3.08401,3.71701,6.168c0,4.035-1.69501,6.73801-4.043,6.73801
			H400.55978z M417.58249,341.8504c-1.30402,0-1.728,0.19101-2.022,1.104c-1.46802,4.64398-4.858,16.33301-6.45599,20.901
			c-0.16302,0.45599-0.32602,0.608-0.58701,0.685l-0.815,0.30399c-0.09799,0.03799-0.16299,0.38101-0.16299,0.49503
			c0,0.077,0,0.11499,0.065,0.11499c0.65198-0.03799,1.62997-0.07599,2.73898-0.07599c1.30402,0,2.60901,0.03799,3.42401,0.07599
			c0.065,0,0.09799,0,0.09799-0.07599c0-0.229-0.09799-0.49603-0.19699-0.49603l-1.69501-0.37997
			c-0.228-0.077-0.358-0.19101-0.32599-0.647c0.19598-1.371,0.81497-4.45502,1.01099-5.55902
			c0.03299-0.19,0.13101-0.30399,0.228-0.30399c1.69601-0.15298,5.479-0.267,6.94601-0.30499
			c0.35898,1.29498,1.565,4.94901,1.92297,6.20599c0.06601,0.30399,0.03403,0.57001-0.22699,0.60901l-1.76199,0.34198
			c-0.09799,0.03799-0.19501,0.30502-0.19501,0.53403c0,0.03799,0,0.07599,0.09702,0.07599
			c0.88098-0.03799,2.642-0.07599,4.46799-0.07599c1.63,0,3.19601,0.07599,3.88,0.07599c0.06601,0,0.09799-0.03799,0.09799-0.07599
			c0-0.26703-0.065-0.45801-0.16299-0.49603l-1.20599-0.37997c-0.19601-0.077-0.35901-0.267-0.42401-0.49503
			c-1.30499-4.68298-4.66299-17.81699-5.70599-21.92798c-0.03299-0.07599-0.16299-0.15302-0.26199-0.15302
			c-0.71701-0.03799-1.59802-0.07599-2.73801-0.07599H417.58249z M416.04947,344.85739
			c0.19601,0.53302,0.32602,0.99002,0.42401,1.33301c0.88101,3.42599,2.57599,8.94601,3.13,10.77301
			c-1.401,0.039-4.89102-0.11401-6.39102-0.341c-0.09698,0-0.19498-0.11502-0.16299-0.267
			c0.61902-2.62701,1.66299-7.043,2.479-10.203c0.064-0.34302,0.16299-0.724,0.32602-1.29501H416.04947z M428.80038,341.92682
			c-0.09698,0-0.09698,0.03799-0.09698,0.11398c0,0.228,0.065,0.418,0.16299,0.45602l1.271,0.34299
			c0.29401,0.07599,0.36002,0.19101,0.36002,0.60898c0.064,1.18103,0.12997,9.25101,0.12997,10.69901
			c0,1.56003,0.09702,8.565,0.065,9.82199c0,0.41803-0.13098,0.53201-0.358,0.57001l-1.46799,0.34302
			c-0.09799,0-0.16299,0.267-0.16299,0.457c0,0.07599,0,0.11398,0.065,0.11398c1.53198-0.03799,2.70599-0.07599,3.979-0.07599
			c3.19498,0,5.80298,0.03799,7.62997,0.07599c1.858,0.07703,2.966,0.11502,3.09702,0.11502
			c0.29401,0,0.32599-0.11502,0.392-0.34302l0.88-5.13998c0-0.11401-0.228-0.38101-0.35901-0.41901
			c-0.065-0.03799-0.09698,0-0.13101,0.07599l-1.82498,3.38901c-0.228,0.41901-0.62,0.64801-0.94601,0.80002
			c-1.435,0.45599-5.05399,0.72299-5.96698,0.72299c-0.228,0-0.42401-0.077-0.42401-0.41901
			c0-1.02798,0.16299-8.75601,0.19601-10.621c0.06497-1.67499,0.228-8.14801,0.358-10.16602
			c0.03299-0.41797,0.13098-0.53299,0.392-0.60898l1.75998-0.30502c0.09802,0,0.16299-0.26599,0.16299-0.53198
			c0-0.03799,0-0.07599-0.06497-0.07599H428.80038z M445.88898,341.92682c-0.065,0-0.065,0.03799-0.065,0.11398
			c0,0.30402,0.065,0.53201,0.16299,0.57101l1.24002,0.26599c0.25998,0.07599,0.358,0.34302,0.358,0.76199
			c0.06497,1.103,0.12997,7.08102,0.16299,9.82199c0.03198,2.58902,0.13,9.02301,0.09799,10.54602
			c0,0.34198-0.06601,0.45599-0.29401,0.49399l-1.5,0.34299c-0.09799,0.03802-0.16299,0.30502-0.16299,0.49503
			c0,0.07599,0,0.11398,0.065,0.11398c0.75-0.03799,2.21799-0.07599,3.91299-0.07599c1.82599,0,3.58701,0.03799,4.142,0.07599
			c0.065,0,0.09702-0.03799,0.09702-0.11398c0-0.15201-0.065-0.41901-0.19501-0.457l-1.33701-0.34302
			c-0.228-0.07599-0.35901-0.15198-0.35901-0.45599c0-0.495,0.09802-8.79498,0.13101-10.203
			c0.03201-1.75198,0.13-8.03299,0.293-10.47c0-0.30399,0.09799-0.495,0.32599-0.53299l1.271-0.26599
			c0.13101-0.039,0.16302-0.38101,0.16302-0.53302c0-0.11398,0-0.15198-0.064-0.15198H445.88898z M462.94431,355.25092
			c0,7.65198,4.37,10.43198,9.52097,10.43198c1.07703,0,2.21802-0.22897,2.80499-0.41898c1.20703-0.41901,2.935-1.33203,3.685-1.789
			c0.065-0.07602,0.09698-0.15302,0.09698-0.26703c0-0.38098-0.06396-0.53299-0.16296-0.495
			c-1.01001,0.457-1.92401,0.83801-2.83704,1.02802c-0.45599,0.11499-1.271,0.229-1.88995,0.229
			c-2.96799,0-6.06601-2.66501-6.06601-9.21399c0-4.302,0.88101-7.65201,2.60901-10.05103
			c1.14099-1.48401,2.54398-2.32199,3.81497-2.32199c0.65302,0,1.07599,0.267,1.27203,0.495
			c0.19598,0.19,0.35895,0.457,0.48895,0.76199c0.521,1.25601,1.23901,3.12201,1.85803,4.72
			c0.06598,0.11502,0.099,0.11502,0.13098,0.11502c0.16302,0,0.48901-0.229,0.45599-0.41901l-0.35797-5.33002
			c0-0.19098-0.03198-0.30499-0.16302-0.38098c-0.71698-0.45599-1.98999-0.72302-3.58698-0.72302
			c-3.09799,0-5.73898,1.14203-7.793,3.08301c-2.08701,2.01901-3.88098,5.55902-3.88098,10.508V355.25092z M480.91248,341.92682
			c-0.09796,0-0.09796,0.03799-0.09796,0.11398c0,0.228,0.06494,0.49399,0.16296,0.49399l1.10803,0.26703
			c0.32697,0.07599,0.45795,0.267,0.39197,0.64697c-0.09802,1.25601-0.71802,6.43402-0.75,11.34503
			c0,8.79498,3.52203,10.88898,8.34802,10.88898c5.54401,0,9.09698-3.617,9.13-11.155c0-4.91199-0.29303-8.33701-0.48901-11.19299
			c-0.03302-0.34299,0.065-0.457,0.32697-0.53299l0.97705-0.229c0.09796-0.03802,0.19598-0.26599,0.19598-0.53201
			c0-0.07599-0.03302-0.11398-0.09802-0.11398h-7.79297c-0.09802,0-0.09802,0.03799-0.09802,0.11398
			c0,0.19,0.03198,0.49399,0.16302,0.49399l1.5,0.26703c0.229,0.07599,0.35901,0.19,0.39099,0.57098
			c0.26196,2.55099,0.32599,7.31,0.32599,11.26901c0,7.69-1.01099,10.31699-3.81403,10.31699
			c-2.51099,0-4.04395-3.311-4.04395-10.12698c0-4.45401,0.065-8.14603,0.35895-11.535c0.03204-0.34302,0.16302-0.457,0.42401-0.495
			l1.46704-0.26703c0.09698,0,0.16296-0.26599,0.16296-0.53198c0-0.07599,0-0.07599-0.09796-0.07599H480.91248z
			 M501.91437,341.92682c-0.065,0-0.065,0.03799-0.065,0.11398c0,0.30402,0.065,0.53201,0.16302,0.57101l1.23999,0.26599
			c0.26001,0.07599,0.35803,0.34302,0.35803,0.76199c0.06494,1.103,0.12994,7.08102,0.16296,9.82199
			c0.03198,2.58902,0.13,9.02301,0.09802,10.54602c0,0.34198-0.06604,0.45599-0.29401,0.49399l-1.5,0.34299
			c-0.09802,0.03802-0.16302,0.30502-0.16302,0.49503c0,0.07599,0,0.11398,0.065,0.11398
			c0.75-0.03799,2.21802-0.07599,3.91302-0.07599c1.82599,0,3.58698,0.03799,4.14197,0.07599
			c0.065,0,0.09705-0.03799,0.09705-0.11398c0-0.15201-0.065-0.41901-0.19501-0.457l-1.33704-0.34302
			c-0.22797-0.07599-0.35901-0.15198-0.35901-0.45599c0-0.495,0.09802-8.79498,0.13104-10.203
			c0.03198-1.75198,0.13-8.03299,0.29297-10.47c0-0.30399,0.09802-0.495,0.32599-0.53299l1.271-0.26599
			c0.13104-0.039,0.16302-0.38101,0.16302-0.53302c0-0.11398,0-0.15198-0.06396-0.15198H501.91437z M526.50098,358.10651
			c0-3.31299-2.67401-5.02499-5.73804-6.66199c-2.77301-1.60001-4.01099-2.74103-4.01099-4.797
			c0-2.39902,1.98798-4.15002,4.30402-4.15002c0.815,0,1.33698,0.19,1.75995,0.457c0.35901,0.228,0.49005,0.41901,0.62103,0.685
			c0.651,1.332,1.271,2.703,1.89001,4.073c0.03296,0.077,0.06598,0.077,0.13098,0.077c0.13,0,0.42401-0.229,0.42401-0.34299
			l-0.39203-4.94901c0-0.19098-0.065-0.267-0.22797-0.34198c-0.58704-0.34302-1.89099-0.53302-3.22803-0.53302
			c-5.41296,0-9.45599,3.69202-9.45599,7.69c0,2.89301,1.72803,4.759,5.185,6.28101
			c3.35803,1.48499,4.76001,2.85599,4.76001,5.14001c0,2.474-2.12,4.073-4.92297,4.073c-0.88104,0-1.69702-0.19-2.21802-0.60901
			c-0.39203-0.26599-0.55499-0.45599-0.78198-0.875c-0.62006-1.21899-1.20703-2.58899-1.82703-3.884
			c-0.03302-0.07602-0.065-0.11401-0.13-0.11401c-0.09802,0-0.45599,0.26602-0.42401,0.38101l0.48901,5.177
			c0.03198,0.229,0.13098,0.30499,0.29401,0.38098c0.71698,0.30502,2.25,0.41901,3.58698,0.41901
			c6.32501,0,9.91205-3.12201,9.91205-7.53799V358.10651z M528.62323,341.92682c-0.065,0-0.065,0.03799-0.065,0.11398
			c0,0.30402,0.065,0.53201,0.16302,0.57101l1.23999,0.26599c0.26001,0.07599,0.35803,0.34302,0.35803,0.76199
			c0.06494,1.103,0.12994,7.08102,0.16296,9.82199c0.03198,2.58902,0.13,9.02301,0.09802,10.54602
			c0,0.34198-0.06604,0.45599-0.29401,0.49399l-1.5,0.34299c-0.09802,0.03802-0.16302,0.30502-0.16302,0.49503
			c0,0.07599,0,0.11398,0.065,0.11398c0.75-0.03799,2.21802-0.07599,3.91302-0.07599c1.82599,0,3.58698,0.03799,4.14197,0.07599
			c0.065,0,0.09705-0.03799,0.09705-0.11398c0-0.15201-0.065-0.41901-0.19501-0.457l-1.33704-0.34302
			c-0.22797-0.07599-0.35901-0.15198-0.35901-0.45599c0-0.495,0.09802-8.79498,0.13104-10.203
			c0.03198-1.75198,0.13-8.03299,0.29297-10.47c0-0.30399,0.09802-0.495,0.32599-0.53299l1.271-0.26599
			c0.13104-0.039,0.16302-0.38101,0.16302-0.53302c0-0.11398,0-0.15198-0.06396-0.15198H528.62323z M538.43854,341.92682
			c-0.09796,0-0.09796,0.03799-0.09796,0.11398c0,0.228,0.06598,0.49399,0.16296,0.53201l1.30499,0.30499
			c0.35803,0.07599,0.45605,0.34302,0.48901,0.76199c0.06604,1.18002,0.26099,8.64102,0.29303,10.31702
			c0.03296,2.13199,0.229,8.87,0.229,9.97501c0,0.41797-0.13104,0.53198-0.35901,0.56998l-1.66302,0.41901
			c-0.09698,0-0.16296,0.267-0.16296,0.41901c0,0.07599,0,0.11398,0.06598,0.11398c0.55298-0.03799,1.56403-0.07599,2.70599-0.07599
			c1.271,0,2.44501,0.03799,2.93402,0.07599c0.09796,0,0.09796-0.03799,0.09796-0.11398c0-0.19-0.065-0.38101-0.16296-0.41901
			l-2.08704-0.41901c-0.22797-0.07599-0.35901-0.19-0.32599-0.56998c0.03302-2.39902,0.32599-10.47003,0.45703-13.32501
			c0-0.30499,0-0.724,0.03198-1.25601l0.16302-0.03799c0.13098,0.228,0.35895,0.646,0.48895,0.875
			c2.57599,4.03601,7.23999,11.345,9.91302,15.11401c0.26099,0.38098,0.55499,0.45697,0.84802,0.45697
			c0.39197,0,1.17395-0.18997,1.53198-0.30499c0.13098-0.07599,0.19696-0.15198,0.19696-0.30399
			c0.03204-1.37,0.19501-9.289,0.29205-11.42099c0.09796-2.81802,0.35999-8.68103,0.45795-9.97501
			c0.065-0.647,0.19501-0.83801,0.52106-0.914l1.20599-0.30502c0.099-0.03796,0.16296-0.34097,0.16296-0.49399
			c0-0.07599,0-0.11398-0.09796-0.11398h-6.29205c-0.06598,0-0.06598,0.03799-0.06598,0.11398
			c0,0.15302,0.06598,0.45602,0.16302,0.49399l1.79401,0.30502c0.32495,0.07599,0.48798,0.267,0.52197,0.724
			c0.26001,2.703,0.39001,12.03,0.45599,14.88498c0,0.534,0.03302,1.104,0.03302,1.71301l-0.13098,0.11499
			c-0.19501-0.38098-0.39203-0.79999-0.58704-1.21799c-2.34802-4.07401-7.85797-14.23898-9.58698-16.94199
			c-0.065-0.11401-0.16302-0.19-0.32599-0.19H538.43854z M574.79913,360.5809c0.03198-0.15201-0.229-0.41901-0.35901-0.457
			c-0.03296,0-0.065,0-0.09796,0.07599c-0.55402,1.06702-1.14099,2.13202-1.79303,3.16c-0.13098,0.267-0.35901,0.457-0.685,0.57199
			c-1.59802,0.49402-4.565,0.64603-5.96802,0.64603c-0.22797,0-0.35797-0.07602-0.35797-0.49402
			c0-1.06598,0.13-8.29999,0.16302-9.55698c0-0.30301,0.09796-0.37903,0.39197-0.41803
			c1.69501-0.19,4.92297-0.37997,6.19501-0.53299c0.09802,0,0.26099-0.41898,0.26099-0.647c0-0.03799,0-0.07599-0.06598-0.07599
			c-0.84698-0.03799-4.5-0.11499-6.75-0.229c-0.03198-1.25598,0.16296-7.30899,0.32599-9.63199
			c0-0.26602,0.034-0.38101,0.35901-0.41901c0.48901,0,3.32599,0.267,4.76099,0.60999c0.39099,0.07602,0.65198,0.19,0.815,0.53302
			c0.48901,1.21799,0.94598,2.35999,1.40198,3.54001c0.03302,0.07599,0.06604,0.07599,0.09802,0.07599
			c0.09802,0,0.39203-0.19,0.39203-0.30402l-0.229-4.987c0-0.15198-0.065-0.228-0.19501-0.228
			c-0.39203,0-2.90302,0.11401-10.17401,0.11401h-1.82599c-0.685,0-1.435-0.03799-2.21802-0.03799
			c-0.06403,0-0.06403,0.03799-0.06403,0.07599c0,0.26599,0.09705,0.53198,0.16302,0.53198l1.33698,0.30502
			c0.19501,0.07599,0.32605,0.228,0.32605,0.685c0.06396,1.25601,0.13,8.37601,0.16296,9.86099
			c0,1.71301,0.06403,9.44101,0.03204,10.58398c0,0.41803-0.13104,0.53201-0.35803,0.60803l-1.5,0.38098
			c-0.099,0.03799-0.16302,0.30499-0.16302,0.457c0,0.03799,0,0.07602,0.09705,0.07602
			c1.07599-0.03802,2.70599-0.07602,3.979-0.07602c3.716,0,6.19501,0.03799,7.82495,0.07602
			c1.63104,0.07599,2.38104,0.11398,2.60901,0.11398c0.16302,0,0.22803-0.07599,0.26105-0.19L574.79913,360.5809z"/>
	</g>
</g>
<g id="complex_x5F_knives">
	<g>
		<path class="st2" d="M369.061,168.21899l1.10498,1.91101l1.59903,0.92599c0.32199-0.39801,1.37-1.379,1.37-1.379l-0.02802-0.241
			l-0.89899-1.20901l-1.58401-1.38199C369.849,167.48599,369.061,168.21899,369.061,168.21899"/>
	</g>
	<g>
		<path class="st3" d="M370.59201,166.87201c-0.37802,0.57401-0.436,1.311-0.08401,1.935
			c0.50299,0.89301,1.65601,1.22299,2.61499,0.767l-0.01599-0.138l-0.89899-1.20901l-1.58401-1.38199
			C370.61301,166.854,370.603,166.86301,370.59201,166.87201"/>
	</g>
	<g>
		<path class="st2" d="M375.55179,167.2554c0,0-0.73203,0.36801-1.16901-0.55099c0,0-0.10202-0.20099,0.05798-0.30698
			c0,0,0.07101-0.06003,0.25201,0.06799l0.29599,0.258c0,0,0.09799-0.05099,0.19299-0.125c0,0,0.155-0.17999,0.009-0.44202
			l-0.17099-0.23099c0,0-0.03601-0.22699,0.444,0.02301c0,0-0.172-0.24902-0.207-0.26199
			c-0.035-0.01202-0.56799-0.11203-0.59201-0.10303c-0.02298,0.009-0.66,0.42401-0.66098,0.457
			c-0.00101,0.03302,0.20099,0.93802,0.20099,0.93802s0.70999,0.63498,0.759,0.63599s0.603-0.22998,0.603-0.22998
			L375.55179,167.2554z"/>
	</g>
	<g>
		<path class="st4" d="M374.853,166.10001c0,0,0.017-0.02301-0.03699-0.11401c0,0-0.095-0.16,0.12198-0.19699
			c0,0,0.478-0.10699,0.68802,0.41c0,0,0.34,0.78699-0.12302,1.09299c-0.24799,0.164-0.84799,0.151-1.142-0.34299
			c-0.09598-0.16299-0.17899-0.40802-0.01898-0.73401c0,0,0.04498-0.08398,0.08499-0.01999c0,0,0.052,0.099,0.10199,0.11398
			L374.853,166.10001z M386.668,155.56601c0,0-4.81201,1.966-6.07401,3l-9.953,8.267c0,0-0.00598,0.004-0.017,0.01199l2.51102,2.832
			c0.427-0.37399,0.98398-0.845,1.715-1.44c0,0,0.19598-0.10999,0.35098,0.02899c0,0,0.134,0.18301,0.298,0.01501
			c0,0,1.46701-2.918,6.61401-5.52402c0,0,3.754-1.758,10.94598-4.49298c0,0,7.30701-2.647,9.76501-8.08502
			C402.82401,150.17899,397.616,151.345,386.668,155.56601"/>
	</g>
	<g>
		<path class="st5" d="M399.09601,151.215c-0.33801,0.987-1.52402,2.45599-5.09201,4.168c0,0-4.909,2.02402-6.263,2.60602
			c0,0-8.215,2.52298-12.28601,7.952c0.06403,0.061,0.125,0.14398,0.17102,0.258c0,0,0.34,0.78699-0.12302,1.09299
			c-0.09,0.06-0.22598,0.095-0.37598,0.09302c-0.095,0.25198-0.246,0.647-0.37601,0.93298
			c0.03299-0.02701,0.064-0.05298,0.099-0.08099c0,0,0.19598-0.10999,0.35098,0.02899c0,0,0.134,0.18301,0.298,0.01501
			c0,0,1.46701-2.918,6.61401-5.52402c0,0,3.754-1.758,10.94598-4.49298c0,0,7.30701-2.647,9.76501-8.08502
			C402.82401,150.17899,401.60101,150.453,399.09601,151.215"/>
	</g>
	<g>
		<path class="st6" d="M371.76559,171.05569c-1.91501-1.58499-2.70502-2.83698-2.70502-2.83698s-2.30701,2.27899-4.082,4.58398
			c0,0-0.21201,0.14001-0.233,0.314c0,0-0.25299,0.04602-0.38199,0.33401c0,0-0.30701,0.108-0.17001,0.40799
			c0,0-2.116,3.82199-4.87198,3.983c0,0-0.29001,0.00201-0.095,0.388c0,0,1.91898,2.58499,5.31598,3.92799
			c0,0,0.22501,0.11,0.186-0.16899c0,0-0.63998-3.414,2.39001-5.80899l0.25998,0.004c0,0,0.069,0.026,0.10001-0.11002
			l0.18201-0.50098c0,0,0.11798-0.07703,0.31601-0.31802c0,0,1.88397-1.97699,3.59998-3.87c0,0,0.16-0.15601,0.19101-0.29199
			C371.76758,171.09271,371.75458,171.08871,371.76559,171.05569"/>
	</g>
	<g>
		<path class="st7" d="M369.03711,173.90231l0.08798-0.04898c-1.04401-0.396-2.577-2.07101-2.96201-2.504l-0.064,0.07599
			C368.10709,173.70734,369.03711,173.90231,369.03711,173.90231"/>
	</g>
	<g>
		<path class="st7" d="M368.69629,174.27249l0.08798-0.04898c-1.03198-0.39099-2.54099-2.03101-2.94699-2.48801
			c-0.022,0.026-0.043,0.052-0.065,0.078C367.77026,174.07852,368.69629,174.27249,368.69629,174.27249"/>
	</g>
	<g>
		<path class="st7" d="M364.91409,172.85349c2.008,2.28101,2.93799,2.47702,2.93799,2.47702l0.08798-0.05002
			c-1.03497-0.392-2.54898-2.03998-2.95099-2.491c-0.004,0.004-0.00699,0.008-0.01099,0.013
			C364.97809,172.80249,364.95007,172.8215,364.91409,172.85349"/>
	</g>
	<g>
		<path class="st7" d="M365.55179,174.01031c-0.22403-0.20999-0.582-0.50299-0.80502-0.89697
			c0,0.00098-0.00101,0.00198-0.00101,0.00299c0,0-0.04797,0.01099-0.11298,0.04401c0.12399,0.233,0.36298,0.565,0.823,0.96899
			c0.483,0.423,1.53699,1.401,2.173,1.52798l0.03098-0.08499c0,0,0.009-0.005,0.02502-0.01801
			C367.45377,175.48932,366.82278,175.20834,365.55179,174.01031"/>
	</g>
	<g>
		<path class="st7" d="M364.3652,173.44629c-0.00101,0.00201-0.00201,0.00302-0.00201,0.00302s-0.30701,0.10901-0.17001,0.41
			c0,0-0.004,0.00699-0.00998,0.01801c1.11099,1.37399,2.43201,2.06,2.98199,2.30298l0.21399,0.004c0,0,0.017,0.00601,0.039-0.005
			l-0.021-0.28598C365.66418,175.11331,364.74219,174.00131,364.3652,173.44629"/>
	</g>
	<g>
		<path class="st8" d="M360.71899,180.61301c0,0,0.125,0.289,0.64001,0.448c0.47501,0.146,1.17899,0.418,1.88699,0.492
			L363.245,181.552c-1.466-0.79001-2.56198-1.75201-3.23599-2.43799C360.009,179.11401,360.61301,180.42401,360.71899,180.61301"/>
	</g>
	<g>
		<path class="st9" d="M399.13669,151.20261c-0.01401,0.00403-0.02701,0.00803-0.04102,0.01202
			c-0.33801,0.98798-1.52301,2.457-5.09201,4.168c0,0-4.909,2.02399-6.263,2.60699c0,0-8.21399,2.522-12.28598,7.95099
			c0.065,0.061,0.125,0.14401,0.17099,0.258c0,0,0.34,0.78702-0.12299,1.09302c-0.09003,0.06-0.22501,0.09601-0.37601,0.09399
			c-0.09399,0.25201-0.246,0.647-0.37601,0.93201c0.021-0.017,0.04102-0.034,0.06201-0.05099c0.12299-0.276,0.258-0.629,0.345-0.862
			c0.151,0.00198,0.28699-0.03403,0.37598-0.09402c0.46301-0.306,0.12402-1.09299,0.12402-1.09299
			c-0.047-0.11401-0.10703-0.19699-0.17102-0.258c4.07001-5.42902,12.28601-7.95099,12.28601-7.95099
			c1.353-0.58301,6.26099-2.60703,6.26099-2.60703c3.45401-1.65598,4.67603-3.08499,5.05701-4.07098
			C399.09366,151.32462,399.11566,151.26663,399.13669,151.20261"/>
	</g>
	<g>
		<path class="st4" d="M364.47601,181.953c-2.73102-1.26001-5.05701-3.746-5.05701-3.746
			c-0.086-0.095-0.11002-0.228-0.10101-0.36499c-0.02899,0.00098-0.276,0.02399-0.091,0.38699c0,0,1.918,2.58499,5.31601,3.92799
			c0,0,0.22501,0.11101,0.185-0.16798c0,0-0.63901-3.414,2.39099-5.80902l0.16501,0.00302l-0.36398-0.08603
			C364.03601,178.271,364.47601,181.953,364.47601,181.953"/>
	</g>
	<g>
		<path class="st10" d="M371.52802,171.12601c0,0-3.60501,3.86398-3.983,4.401c0,0-0.16202,0.38599-0.25403,0.65601l0.08801,0.00098
			c0,0,0.06799,0.026,0.10001-0.10999l0.181-0.50101c0,0,0.11801-0.078,0.31601-0.319c0,0,1.88397-1.97598,3.59998-3.87
			c0,0,0.16-0.155,0.19202-0.29199c0,0-0.01401-0.00302-0.00299-0.03601c-0.091-0.07501-0.177-0.14899-0.263-0.22299
			C371.548,170.948,371.57401,171.064,371.52802,171.12601"/>
	</g>
	<g>
		<path class="st2" d="M388.62601,170.08801L387.478,171.065l-0.07999,0.228c0,0,0.79999,1.19101,1.02499,1.65201l1.76599-0.54602
			l1.50601-1.61398c0,0-0.60501-0.89099-1.21701-1.689L388.62601,170.08801z"/>
	</g>
	<g>
		<path class="st3" d="M388.62601,170.08801L387.478,171.065l-0.04599,0.13101c0.83301,0.659,2.03101,0.59598,2.72101-0.16202
			c0.48297-0.52899,0.59198-1.26199,0.35098-1.90399c-0.008-0.01102-0.017-0.02301-0.026-0.034L388.62601,170.08801z"/>
	</g>
	<g>
		<path class="st2" d="M385.58401,168.3931c0,0,0.63199,0.522,1.26297-0.27499c0,0,0.14301-0.17398,0.01202-0.31299
			c0,0-0.05502-0.07501-0.26102,0.01001l-0.345,0.185c0,0-0.086-0.07202-0.16098-0.16501c0,0-0.112-0.211,0.091-0.43201
			l0.21698-0.18698c0,0,0.086-0.21301-0.43799-0.078c0,0,0.224-0.20401,0.26099-0.20801
			c0.03702-0.004,0.57901,0.01801,0.599,0.03101c0.021,0.01498,0.54901,0.56198,0.54202,0.59399
			c-0.00601,0.03198-0.40601,0.86899-0.40601,0.86899s-0.83301,0.46002-0.88101,0.45001s-0.53601-0.35901-0.53601-0.35901
			L385.58401,168.3931z"/>
	</g>
	<g>
		<path class="st4" d="M385.62299,168.439c-0.38199-0.401,0.125-1.09201,0.125-1.09201
			c0.32101-0.45798,0.76401-0.24597,0.76401-0.24597c0.203,0.08398,0.073,0.21899,0.073,0.21899
			c-0.07199,0.07599-0.06198,0.103-0.06198,0.103l0.26898,0.276c0.05402-0.00201,0.12601-0.08902,0.12601-0.08902
			c0.05399-0.05399,0.078,0.04001,0.078,0.04001c0.08301,0.353-0.05099,0.57199-0.18301,0.70999
			c-0.19199,0.20102-0.42798,0.27701-0.64499,0.27701C385.93701,168.63699,385.729,168.55099,385.62299,168.439 M370.53299,155.711
			c6.397,4.27499,9.664,6.828,9.664,6.828c4.43201,3.69299,5.21002,6.86499,5.21002,6.86499
			c0.121,0.20001,0.29398,0.052,0.29398,0.052c0.181-0.10098,0.34802,0.05099,0.34802,0.05099
			c0.578,0.74301,1.01599,1.32703,1.349,1.78601l3.07999-2.19699c-0.008-0.01102-0.013-0.01602-0.013-0.01602l-7.85098-10.28497
			C381.616,157.505,377.366,154.513,377.366,154.513c-9.72501-6.56699-14.539-8.86801-14.539-8.86801
			C364.005,151.495,370.53299,155.711,370.53299,155.711"/>
	</g>
	<g>
		<path class="st5" d="M370.53299,155.711c6.397,4.27499,9.664,6.828,9.664,6.828c4.43201,3.69299,5.21002,6.86499,5.21002,6.86499
			c0.121,0.20001,0.29398,0.052,0.29398,0.052c0.181-0.10098,0.34802,0.05099,0.34802,0.05099
			c0.02698,0.034,0.05099,0.06601,0.078,0.10001c-0.06302-0.306-0.12201-0.72501-0.15701-0.992
			c-0.14801-0.03299-0.27301-0.09698-0.34702-0.17599c-0.38199-0.401,0.125-1.09201,0.125-1.09201
			c0.07202-0.10199,0.147-0.16898,0.22501-0.215C383.22,160.931,375.77802,156.633,375.77802,156.633
			c-1.18903-0.87-5.52002-3.94199-5.52002-3.94199c-3.09399-2.46701-3.922-4.16299-4.03-5.202
			c-2.272-1.30402-3.401-1.84402-3.401-1.84402C364.005,151.495,370.53299,155.711,370.53299,155.711"/>
	</g>
	<g>
		<path class="st6" d="M388.4238,172.94431c2.22098-1.116,3.271-2.15997,3.271-2.15997s1.73798,2.73798,2.953,5.38098
			c0,0,0.17398,0.185,0.15598,0.35901c0,0,0.237,0.10199,0.29901,0.41101c0,0,0.27301,0.17398,0.073,0.43597
			c0,0,1.20801,4.19901,3.85699,4.972c0,0,0.28302,0.067,0.005,0.399c0,0-2.448,2.09-6.06,2.63901c0,0-0.24301,0.058-0.14301-0.207
			c0,0,1.38699-3.18399-1.02798-6.19598l-0.25601-0.05402c0,0-0.07199,0.01001-0.07199-0.13l-0.065-0.52899
			c0,0-0.09702-0.10199-0.237-0.38101c0,0-1.39401-2.349-2.642-4.57797c0,0-0.12201-0.18701-0.12201-0.32602
			C388.41278,172.98032,388.42679,172.97833,388.4238,172.94431"/>
	</g>
	<g>
		<path class="st7" d="M390.44531,176.3291l-0.07401-0.06799c1.10498-0.151,2.974-1.44098,3.44598-1.77698
			c0.01599,0.03,0.03101,0.05899,0.047,0.08899C391.39529,176.34811,390.44531,176.3291,390.44531,176.3291"/>
	</g>
	<g>
		<path class="st7" d="M390.69531,176.7666l-0.07501-0.06799c1.09399-0.14999,2.92999-1.41098,3.42899-1.76498
			c0.01501,0.03,0.03101,0.06,0.04501,0.09C391.64029,176.78461,390.69531,176.7666,390.69531,176.7666"/>
	</g>
	<g>
		<path class="st7" d="M394.69919,176.23001c-2.46802,1.77402-3.41803,1.75601-3.41803,1.75601l-0.07498-0.06799
			c1.09698-0.14999,2.94101-1.41699,3.43298-1.76801c0.00302,0.005,0.005,0.01102,0.00803,0.01599
			C394.64719,176.16602,394.67017,176.19003,394.69919,176.23001"/>
	</g>
	<g>
		<path class="st7" d="M393.81839,177.21481c0.26498-0.155,0.681-0.35999,0.98499-0.69397v0.00299
			c0,0,0.04501,0.021,0.10101,0.06799c-0.173,0.19901-0.48102,0.47-1.02002,0.76001c-0.565,0.30399-1.81,1.021-2.45999,1.004
			l-0.01001-0.09c0,0-0.008-0.008-0.021-0.02402C391.63336,178.22983,392.31238,178.09784,393.81839,177.21481"/>
	</g>
	<g>
		<path class="st7" d="M395.10059,176.93069c0,0.00201,0.00098,0.00302,0.00098,0.00302s0.27402,0.17499,0.07401,0.43698
			c0,0,0.00201,0.00803,0.00601,0.02002c-1.39001,1.091-2.83099,1.46399-3.422,1.578l-0.20901-0.04401
			c0,0-0.01801,0.00198-0.03699-0.01401l0.08398-0.27399C393.46158,178.26471,394.60956,177.3877,395.10059,176.93069"/>
	</g>
	<g>
		<path class="st8" d="M394.379,185.08099l-0.00198,0.002c0.70599,0.08601,1.45297-0.02199,1.94897-0.05899
			c0.539-0.039,0.72501-0.293,0.72501-0.293c0.14502-0.159,1.02701-1.30101,1.02701-1.30101
			C397.26801,183.94701,395.983,184.64,394.379,185.08099"/>
	</g>
	<g>
		<path class="st9" d="M366.19141,147.4678c0.01199,0.00702,0.02399,0.01401,0.03699,0.02103
			c0.108,1.039,0.936,2.73499,4.02899,5.202c0,0,4.33099,3.07199,5.521,3.94199c0,0,7.44202,4.298,10.194,10.5
			c-0.077,0.04501-0.15298,0.112-0.224,0.21301c0,0-0.50699,0.69199-0.125,1.09299c0.07401,0.078,0.19901,0.14401,0.34601,0.17599
			c0.035,0.267,0.095,0.686,0.15799,0.992c-0.017-0.021-0.03299-0.04199-0.04898-0.06299
			c-0.05801-0.297-0.11102-0.67099-0.14401-0.91699c-0.146-0.03302-0.271-0.09802-0.34601-0.17603
			c-0.38199-0.40198,0.125-1.09299,0.125-1.09299c0.07101-0.10101,0.14801-0.168,0.22501-0.21301
			c-2.75299-6.20297-10.194-10.5-10.194-10.5c-1.19-0.871-5.521-3.94199-5.521-3.94199
			c-2.99399-2.38699-3.866-4.05301-4.01599-5.10001C366.20639,147.59683,366.19839,147.53482,366.19141,147.4678"/>
	</g>
	<g>
		<path class="st4" d="M391.64401,178.944l0.16199,0.034c2.41599,3.013,1.02899,6.19701,1.02899,6.19701
			c-0.10098,0.26399,0.142,0.20599,0.142,0.20599c3.61301-0.548,6.061-2.638,6.061-2.638
			c0.26199-0.313,0.026-0.39099-0.00198-0.39799c-0.022,0.13499-0.07501,0.259-0.181,0.33299c0,0-2.823,1.901-5.76602,2.51801
			c0,0,1.25302-3.49001-1.07098-6.25401L391.64401,178.944z"/>
	</g>
	<g>
		<path class="st10" d="M388.423,172.94501c0.004,0.034-0.01001,0.035-0.01001,0.035c0,0.13898,0.12201,0.32599,0.12201,0.32599
			c1.24799,2.23001,2.64099,4.57901,2.64099,4.57901c0.14001,0.27899,0.23801,0.38,0.23801,0.38l0.065,0.53
			c0,0.13898,0.07199,0.129,0.07199,0.129l0.08499,0.01797c-0.02798-0.28198-0.09998-0.69498-0.09998-0.69498
			c-0.24802-0.60699-2.897-5.181-2.897-5.181c-0.03-0.07202,0.01999-0.17801,0.091-0.28
			C388.629,172.83899,388.52899,172.892,388.423,172.94501"/>
	</g>
</g>
</svg>
